<?xml version="1.0" standalone="no"?>
<!DOCTYPE svg PUBLIC "-//W3C//DTD SVG 20010904//EN"
 "http://www.w3.org/TR/2001/REC-SVG-20010904/DTD/svg10.dtd">
<svg version="1.0" xmlns="http://www.w3.org/2000/svg"
 width="416.000000pt" height="508.000000pt" viewBox="0 0 416.000000 508.000000"
 preserveAspectRatio="xMidYMid meet">

<g transform="translate(0.000000,508.000000) scale(0.100000,-0.100000)"
fill="#000000" stroke="none">
<path d="M1896 5070 c-154 -25 -257 -65 -336 -131 l-49 -41 -96 7 c-182 13
-254 -19 -458 -207 l-83 -77 -37 11 c-31 9 -54 7 -139 -11 -57 -13 -121 -32
-143 -44 -73 -36 -164 -142 -252 -292 -50 -85 -116 -180 -168 -240 -116 -136
-130 -166 -130 -280 1 -128 32 -189 164 -328 54 -57 99 -82 163 -92 44 -7 54
-15 159 -127 143 -152 178 -172 304 -173 50 0 109 4 131 8 l42 8 16 -48 c23
-69 36 -173 36 -288 0 -78 4 -108 18 -135 13 -23 21 -68 26 -130 8 -126 20
-164 66 -214 l39 -42 -29 -52 c-15 -28 -44 -70 -63 -93 -84 -98 -105 -216 -73
-419 20 -124 17 -146 -40 -308 -66 -186 -77 -251 -77 -442 0 -120 8 -221 27
-370 30 -225 40 -278 67 -330 26 -54 57 -76 149 -110 104 -39 228 -50 359 -30
100 15 148 36 186 82 39 46 102 181 121 261 15 60 16 79 4 166 -12 90 -11 204
2 216 3 3 21 -3 40 -14 50 -30 255 -95 383 -122 90 -19 140 -24 275 -24 146 0
172 3 228 23 34 12 69 22 78 22 9 0 57 14 106 30 120 40 122 39 111 -120 -4
-63 -8 -173 -8 -245 0 -125 1 -132 29 -182 51 -92 138 -133 284 -133 139 0
267 44 345 119 105 99 144 286 107 516 -23 146 -17 235 26 360 37 108 37 113
42 290 6 250 0 276 -101 456 -31 54 -40 83 -48 155 -36 302 -47 345 -119 449
l-31 45 41 48 c51 58 114 185 134 272 20 83 20 212 1 276 -8 27 -35 82 -60
122 -31 49 -43 78 -37 85 5 7 12 63 15 125 3 87 0 136 -14 210 -24 125 -24
172 2 222 19 35 24 39 47 33 15 -4 77 -7 137 -8 102 0 113 2 157 27 135 80
206 259 179 456 -14 107 -44 169 -132 279 -48 60 -84 117 -103 164 -40 97 -97
180 -146 213 -50 33 -158 69 -275 92 -170 34 -433 24 -740 -27 -72 -12 -150
-19 -195 -17 -66 3 -82 8 -135 40 -34 20 -81 42 -105 48 -61 14 -351 21 -424
10z m440 -238 c123 -72 221 -77 539 -27 196 31 463 38 575 17 92 -18 192 -51
214 -70 10 -10 45 -71 77 -137 39 -80 77 -142 115 -185 81 -93 98 -136 98
-240 0 -65 -5 -96 -21 -132 -33 -72 -55 -82 -168 -73 l-94 7 -7 36 c-13 77
-75 260 -103 304 -66 103 -156 133 -212 70 -42 -46 -40 -94 5 -136 43 -41 51
-57 87 -174 37 -118 35 -197 -6 -276 -32 -63 -34 -162 -5 -301 11 -54 19 -100
16 -102 -2 -2 -15 1 -29 6 -26 10 -29 17 -58 136 -20 82 -49 135 -93 167 -52
38 -133 79 -214 108 -61 22 -65 22 -98 6 -59 -28 -76 -102 -35 -149 9 -10 61
-40 117 -67 56 -26 107 -56 112 -67 6 -10 21 -64 35 -120 14 -55 33 -113 43
-128 11 -17 46 -40 90 -60 72 -33 73 -34 113 -112 21 -43 55 -105 75 -137 32
-53 36 -68 36 -126 0 -73 -19 -150 -56 -221 -37 -74 -68 -104 -133 -128 -76
-27 -117 -70 -138 -141 -19 -68 -57 -143 -94 -191 -62 -79 -226 -111 -352 -69
-95 32 -130 25 -187 -39 -38 -43 -58 -56 -128 -81 -45 -16 -106 -33 -136 -36
-110 -13 -291 49 -367 126 -54 55 -78 65 -199 85 -76 13 -122 27 -165 50 -33
18 -88 38 -123 44 -70 11 -111 33 -160 83 -31 32 -33 39 -39 130 -3 52 -3 107
1 122 3 14 33 55 65 91 78 86 102 138 112 239 4 47 19 112 35 154 23 64 33 78
80 112 65 48 82 90 60 143 -27 65 -100 79 -164 31 -69 -51 -104 -89 -132 -144
-41 -82 -80 -214 -80 -274 0 -30 -6 -60 -15 -72 -14 -18 -14 -17 -15 16 -1 86
-40 201 -126 368 -76 148 -87 176 -98 250 -12 90 -33 124 -81 136 -37 9 -91
-17 -110 -55 -25 -48 -7 -177 42 -288 12 -29 23 -57 23 -62 0 -15 -89 -10
-120 6 -16 8 -66 56 -111 107 -122 138 -179 178 -254 178 -30 0 -57 22 -114
94 -42 53 -53 74 -58 115 -7 59 -6 61 102 186 42 50 108 144 147 210 89 151
138 217 180 243 42 25 157 51 183 41 37 -14 105 -9 143 10 21 11 87 65 147
122 64 59 131 112 160 126 46 21 58 23 155 17 131 -8 173 3 246 63 110 89 216
115 450 109 l151 -3 69 -41z m1093 -2612 c37 -60 46 -98 60 -250 19 -200 27
-223 127 -395 l29 -50 0 -190 c0 -190 0 -190 -33 -280 -51 -139 -56 -211 -32
-422 16 -139 18 -190 10 -232 -25 -134 -89 -182 -246 -189 -84 -4 -93 -3 -114
18 -21 21 -22 28 -16 134 21 375 21 338 -8 401 -14 31 -43 80 -63 108 l-38 51
0 124 c0 123 0 124 -28 148 -38 32 -96 33 -133 1 -23 -21 -27 -33 -36 -118 -5
-51 -6 -113 -3 -135 6 -40 5 -42 -32 -57 -21 -8 -74 -23 -118 -32 -44 -10 -94
-24 -112 -32 -74 -30 -303 -11 -498 42 -158 43 -195 60 -250 120 -32 34 -62
57 -81 61 -26 5 -32 14 -57 83 -15 43 -39 88 -52 101 -50 47 -139 19 -159 -47
-6 -25 -1 -53 29 -138 34 -98 37 -115 31 -179 -17 -197 -18 -252 -6 -323 11
-70 10 -80 -11 -145 -44 -139 -82 -162 -249 -155 -114 5 -184 30 -194 71 -10
41 -54 403 -61 506 -11 149 8 269 71 455 65 193 71 238 50 374 -9 58 -16 132
-16 166 0 58 3 65 45 120 25 32 58 80 73 107 18 31 32 46 42 43 8 -2 33 -7 55
-10 22 -3 72 -22 110 -40 47 -23 103 -40 170 -52 94 -16 103 -19 149 -60 56
-50 157 -101 266 -135 109 -34 254 -31 368 6 123 40 209 82 227 109 16 24 17
25 63 10 34 -11 76 -13 152 -10 220 11 340 87 441 283 24 46 45 84 46 84 1 0
15 -23 32 -50z"/>
<path d="M2912 4267 c-94 -35 -147 -118 -140 -223 4 -68 25 -101 80 -130 34
-18 139 -18 181 -1 44 19 104 88 117 136 21 78 -21 185 -84 215 -39 19 -107
20 -154 3z"/>
<path d="M1332 3949 c-13 -5 -48 -30 -77 -55 -68 -58 -89 -112 -83 -218 3 -59
8 -81 31 -115 112 -168 367 -39 367 185 0 98 -41 164 -122 199 -42 17 -81 18
-116 4z"/>
<path d="M2480 3233 c-24 -9 -52 -36 -64 -63 -29 -63 -74 -121 -105 -136 -49
-24 -149 -15 -231 20 -87 37 -105 41 -141 26 -52 -22 -73 -85 -44 -139 22 -44
208 -121 291 -121 30 0 34 -4 45 -39 23 -78 1 -120 -105 -191 -49 -33 -49 -33
-111 -21 -99 18 -139 15 -173 -14 -38 -32 -48 -74 -28 -112 23 -47 38 -53 152
-70 140 -20 180 -11 294 66 77 51 136 115 152 163 3 9 21 5 64 -15 84 -37 188
-58 329 -64 119 -6 121 -5 151 21 37 31 47 69 29 113 -20 47 -55 59 -185 66
-175 10 -286 47 -337 114 l-27 35 27 20 c39 28 137 179 143 219 10 62 -24 110
-86 123 -14 3 -32 2 -40 -1z"/>
</g>
</svg>
